<?xml version="1.0" standalone="no"?>
<!DOCTYPE svg PUBLIC "-//W3C//DTD SVG 20010904//EN"
 "http://www.w3.org/TR/2001/REC-SVG-20010904/DTD/svg10.dtd">
<svg version="1.0" xmlns="http://www.w3.org/2000/svg"
 width="128.000000pt" height="128.000000pt" viewBox="0 0 128.000000 128.000000"
 preserveAspectRatio="xMidYMid meet">
<metadata>
Created by potrace 1.16, written by Peter Selinger 2001-2019
</metadata>
<g transform="translate(0.000000,128.000000) scale(0.100000,-0.100000)"
fill="#000000" stroke="none">
<path d="M47 748 c-7 -213 -10 -748 -4 -748 2 0 134 45 293 100 l288 99 206
-70 c113 -39 242 -84 288 -99 l82 -29 0 475 0 474 -44 0 -44 0 -4 -157 c-3
-175 -11 -198 -72 -230 -42 -22 -141 -22 -183 0 -57 30 -67 63 -71 235 l-4
152 -71 0 -72 -1 28 -20 c82 -62 105 -188 50 -277 -42 -71 -111 -102 -220
-102 l-83 0 0 200 0 200 -25 0 -25 0 0 -150 c0 -166 -9 -206 -55 -236 -36 -23
-112 -23 -147 0 -23 15 -26 21 -17 44 5 15 12 32 14 39 3 9 10 9 31 -2 27 -14
53 -10 66 9 4 6 8 75 8 154 l0 142 -103 0 -104 0 -6 -202z"/>
<path d="M880 811 c0 -156 6 -171 65 -171 59 0 65 15 65 171 l0 139 -65 0 -65
0 0 -139z"/>
<path d="M510 760 l0 -120 31 0 c22 0 41 10 65 34 30 30 34 40 34 86 0 46 -4
56 -34 86 -24 24 -43 34 -65 34 l-31 0 0 -120z"/>
</g>
</svg>
